<?xml version="1.0" encoding="UTF-8" standalone="no"?>
<!DOCTYPE svg PUBLIC "-//W3C//DTD SVG 1.1//EN"
 "http://www.w3.org/Graphics/SVG/1.1/DTD/svg11.dtd">
<!-- Generated by graphviz version 2.38.0 (20140413.2041)
 -->
<!-- Title: G Pages: 1 -->
<svg width="882pt" height="4458pt"
 viewBox="0.00 0.00 882.16 4458.00" xmlns="http://www.w3.org/2000/svg" xmlns:xlink="http://www.w3.org/1999/xlink">
<g id="graph0" class="graph" transform="scale(1 1) rotate(0) translate(4 4454)">
<title>G</title>
<polygon fill="white" stroke="none" points="-4,4 -4,-4454 878.161,-4454 878.161,4 -4,4"/>
<g id="clust1" class="cluster"><title>cluster_Global</title>
<path fill="none" stroke="gray" d="M309.074,-1022C309.074,-1022 854.161,-1022 854.161,-1022 860.161,-1022 866.161,-1028 866.161,-1034 866.161,-1034 866.161,-4430 866.161,-4430 866.161,-4436 860.161,-4442 854.161,-4442 854.161,-4442 309.074,-4442 309.074,-4442 303.074,-4442 297.074,-4436 297.074,-4430 297.074,-4430 297.074,-1034 297.074,-1034 297.074,-1028 303.074,-1022 309.074,-1022"/>
<text text-anchor="middle" x="581.618" y="-4429.2" font-family="Times New Roman,serif" font-size="11.00" fill="gray">Global</text>
</g>
<!-- \\MLATest -->
<g id="node1" class="node"><title>\\MLATest</title>
<polygon fill="none" stroke="black" points="750.161,-4414 686.161,-4414 686.161,-4378 750.161,-4378 750.161,-4414"/>
<text text-anchor="middle" x="718.161" y="-4393.2" font-family="Courier,monospace" font-size="11.00">MLATest</text>
</g>
<!-- \\MLASettings_View -->
<g id="node2" class="node"><title>\\MLASettings_View</title>
<polygon fill="none" stroke="black" points="780.661,-4360 655.661,-4360 655.661,-4324 780.661,-4324 780.661,-4360"/>
<text text-anchor="middle" x="718.161" y="-4339.2" font-family="Courier,monospace" font-size="11.00">MLASettings_View</text>
</g>
<!-- \\MLA_View_List_Table -->
<g id="node3" class="node"><title>\\MLA_View_List_Table</title>
<polygon fill="none" stroke="black" points="790.661,-4198 645.661,-4198 645.661,-4162 790.661,-4162 790.661,-4198"/>
<text text-anchor="middle" x="718.161" y="-4177.2" font-family="Courier,monospace" font-size="11.00">MLA_View_List_Table</text>
</g>
<!-- \\WP_List_Table -->
<g id="node65" class="node"><title>\\WP_List_Table</title>
<ellipse fill="none" stroke="black" cx="71.4937" cy="-302" rx="71.4873" ry="18"/>
<text text-anchor="middle" x="71.4937" y="-298.3" font-family="Times New Roman,serif" font-size="14.00" fill="gray">\WP_List_Table</text>
</g>
<!-- \\MLA_View_List_Table&#45;&gt;\\WP_List_Table -->
<g id="edge1" class="edge"><title>\\MLA_View_List_Table&#45;&gt;\\WP_List_Table</title>
<path fill="none" stroke="black" d="M645.442,-4187.96C567.677,-4192.66 443.698,-4188.21 361.574,-4126"/>
</g>
<!-- \\MLASettings_Upload -->
<g id="node4" class="node"><title>\\MLASettings_Upload</title>
<polygon fill="none" stroke="black" points="787.161,-4252 649.161,-4252 649.161,-4216 787.161,-4216 787.161,-4252"/>
<text text-anchor="middle" x="718.161" y="-4231.2" font-family="Courier,monospace" font-size="11.00">MLASettings_Upload</text>
</g>
<!-- \\MLA_Upload_List_Table -->
<g id="node5" class="node"><title>\\MLA_Upload_List_Table</title>
<polygon fill="none" stroke="black" points="797.161,-4144 639.161,-4144 639.161,-4108 797.161,-4108 797.161,-4144"/>
<text text-anchor="middle" x="718.161" y="-4123.2" font-family="Courier,monospace" font-size="11.00">MLA_Upload_List_Table</text>
</g>
<!-- \\MLA_Upload_List_Table&#45;&gt;\\WP_List_Table -->
<g id="edge2" class="edge"><title>\\MLA_Upload_List_Table&#45;&gt;\\WP_List_Table</title>
<path fill="none" stroke="black" d="M639.103,-4136.59C547.748,-4147.2 403.586,-4157.83 361.574,-4126"/>
</g>
<!-- \\MLA_Upload_Optional_List_Table -->
<g id="node6" class="node"><title>\\MLA_Upload_Optional_List_Table</title>
<polygon fill="none" stroke="black" points="827.661,-3874 608.661,-3874 608.661,-3838 827.661,-3838 827.661,-3874"/>
<text text-anchor="middle" x="718.161" y="-3853.2" font-family="Courier,monospace" font-size="11.00">MLA_Upload_Optional_List_Table</text>
</g>
<!-- \\MLA_Upload_Optional_List_Table&#45;&gt;\\WP_List_Table -->
<g id="edge3" class="edge"><title>\\MLA_Upload_Optional_List_Table&#45;&gt;\\WP_List_Table</title>
<path fill="none" stroke="black" d="M608.41,-3869.88C597.838,-3873.34 587.563,-3877.65 578.161,-3883 452.42,-3954.55 476.892,-4213.36 361.574,-4126"/>
<path fill="none" stroke="black" d="M359.574,-4126C198.474,-4003.96 84.6675,-671.878 73.4114,-330.213"/>
<polygon fill="none" stroke="black" points="76.9073,-330.029 73.081,-320.149 69.911,-330.258 76.9073,-330.029"/>
</g>
<!-- \\MLAData -->
<g id="node7" class="node"><title>\\MLAData</title>
<polygon fill="none" stroke="black" points="750.161,-4090 686.161,-4090 686.161,-4054 750.161,-4054 750.161,-4090"/>
<text text-anchor="middle" x="718.161" y="-4069.2" font-family="Courier,monospace" font-size="11.00">MLAData</text>
</g>
<!-- \\MLAShortcodes -->
<g id="node8" class="node"><title>\\MLAShortcodes</title>
<polygon fill="none" stroke="black" points="770.161,-4036 666.161,-4036 666.161,-4000 770.161,-4000 770.161,-4036"/>
<text text-anchor="middle" x="718.161" y="-4015.2" font-family="Courier,monospace" font-size="11.00">MLAShortcodes</text>
</g>
<!-- \\MLA_Ajax -->
<g id="node9" class="node"><title>\\MLA_Ajax</title>
<polygon fill="none" stroke="black" points="753.661,-3982 682.661,-3982 682.661,-3946 753.661,-3946 753.661,-3982"/>
<text text-anchor="middle" x="718.161" y="-3961.2" font-family="Courier,monospace" font-size="11.00">MLA_Ajax</text>
</g>
<!-- \\MLAOptions -->
<g id="node10" class="node"><title>\\MLAOptions</title>
<polygon fill="none" stroke="black" points="760.161,-3928 676.161,-3928 676.161,-3892 760.161,-3892 760.161,-3928"/>
<text text-anchor="middle" x="718.161" y="-3907.2" font-family="Courier,monospace" font-size="11.00">MLAOptions</text>
</g>
<!-- \\ACP_Addon_MLA_Editing_Strategy -->
<g id="node11" class="node"><title>\\ACP_Addon_MLA_Editing_Strategy</title>
<polygon fill="none" stroke="black" points="827.661,-3820 608.661,-3820 608.661,-3784 827.661,-3784 827.661,-3820"/>
<text text-anchor="middle" x="718.161" y="-3799.2" font-family="Courier,monospace" font-size="11.00">ACP_Addon_MLA_Editing_Strategy</text>
</g>
<!-- \\ACP_Editing_Strategy_Post -->
<g id="node66" class="node"><title>\\ACP_Editing_Strategy_Post</title>
<ellipse fill="none" stroke="black" cx="360.574" cy="-996" rx="117.779" ry="18"/>
<text text-anchor="middle" x="360.574" y="-992.3" font-family="Times New Roman,serif" font-size="14.00" fill="gray">\ACP_Editing_Strategy_Post</text>
</g>
<!-- \\ACP_Addon_MLA_Editing_Strategy&#45;&gt;\\ACP_Editing_Strategy_Post -->
<g id="edge4" class="edge"><title>\\ACP_Addon_MLA_Editing_Strategy&#45;&gt;\\ACP_Editing_Strategy_Post</title>
<path fill="none" stroke="black" d="M608.435,-3796.34C596.856,-3791.53 586.342,-3784.66 578.161,-3775 380.158,-3541.12 708.901,-1247.78 506.161,-1018 500.61,-1011.71 494.082,-1006.67 486.923,-1002.68"/>
<polygon fill="none" stroke="black" points="488.071,-999.345 477.543,-998.155 485.03,-1005.65 488.071,-999.345"/>
</g>
<!-- \\AC_Addon_MLA_ListScreen -->
<g id="node12" class="node"><title>\\AC_Addon_MLA_ListScreen</title>
<polygon fill="none" stroke="black" points="804.161,-3766 632.161,-3766 632.161,-3730 804.161,-3730 804.161,-3766"/>
<text text-anchor="middle" x="718.161" y="-3745.2" font-family="Courier,monospace" font-size="11.00">AC_Addon_MLA_ListScreen</text>
</g>
<!-- \\AC_ListScreen_Media -->
<g id="node67" class="node"><title>\\AC_ListScreen_Media</title>
<ellipse fill="none" stroke="black" cx="360.574" cy="-942" rx="96.6831" ry="18"/>
<text text-anchor="middle" x="360.574" y="-938.3" font-family="Times New Roman,serif" font-size="14.00" fill="gray">\AC_ListScreen_Media</text>
</g>
<!-- \\AC_Addon_MLA_ListScreen&#45;&gt;\\AC_ListScreen_Media -->
<g id="edge5" class="edge"><title>\\AC_Addon_MLA_ListScreen&#45;&gt;\\AC_ListScreen_Media</title>
<path fill="none" stroke="black" d="M632.03,-3749.3C611.523,-3745.28 591.663,-3736.95 578.161,-3721 380.511,-3487.55 704.656,-1201.73 506.161,-969 495.967,-957.047 482.321,-949.279 467.472,-944.376"/>
<polygon fill="none" stroke="black" points="468.141,-940.928 457.565,-941.553 466.222,-947.659 468.141,-940.928"/>
</g>
<!-- \\ACP_Addon_MLA_Editing_Model_Media_Title -->
<g id="node13" class="node"><title>\\ACP_Addon_MLA_Editing_Model_Media_Title</title>
<polygon fill="none" stroke="black" points="858.161,-3712 578.161,-3712 578.161,-3676 858.161,-3676 858.161,-3712"/>
<text text-anchor="middle" x="718.161" y="-3691.2" font-family="Courier,monospace" font-size="11.00">ACP_Addon_MLA_Editing_Model_Media_Title</text>
</g>
<!-- \\ACP_Editing_Model_Media_Title -->
<g id="node68" class="node"><title>\\ACP_Editing_Model_Media_Title</title>
<ellipse fill="none" stroke="black" cx="360.574" cy="-888" rx="137.576" ry="18"/>
<text text-anchor="middle" x="360.574" y="-884.3" font-family="Times New Roman,serif" font-size="14.00" fill="gray">\ACP_Editing_Model_Media_Title</text>
</g>
<!-- \\ACP_Addon_MLA_Editing_Model_Media_Title&#45;&gt;\\ACP_Editing_Model_Media_Title -->
<g id="edge6" class="edge"><title>\\ACP_Addon_MLA_Editing_Model_Media_Title&#45;&gt;\\ACP_Editing_Model_Media_Title</title>
<path fill="none" stroke="black" d="M587.26,-3675.91C583.991,-3673.24 580.941,-3670.28 578.161,-3667 380.511,-3433.55 704.656,-1147.73 506.161,-915 501.812,-909.9 496.834,-905.562 491.402,-901.883"/>
<polygon fill="none" stroke="black" points="492.908,-898.707 482.518,-896.63 489.345,-904.733 492.908,-898.707"/>
</g>
<!-- \\ACP_Addon_MLA_Column_Title -->
<g id="node14" class="node"><title>\\ACP_Addon_MLA_Column_Title</title>
<polygon fill="none" stroke="black" points="814.161,-3604 622.161,-3604 622.161,-3568 814.161,-3568 814.161,-3604"/>
<text text-anchor="middle" x="718.161" y="-3583.2" font-family="Courier,monospace" font-size="11.00">ACP_Addon_MLA_Column_Title</text>
</g>
<!-- \\AC_Column_Media_Title -->
<g id="node69" class="node"><title>\\AC_Column_Media_Title</title>
<ellipse fill="none" stroke="black" cx="360.574" cy="-780" rx="107.781" ry="18"/>
<text text-anchor="middle" x="360.574" y="-776.3" font-family="Times New Roman,serif" font-size="14.00" fill="gray">\AC_Column_Media_Title</text>
</g>
<!-- \\ACP_Addon_MLA_Column_Title&#45;&gt;\\AC_Column_Media_Title -->
<g id="edge7" class="edge"><title>\\ACP_Addon_MLA_Column_Title&#45;&gt;\\AC_Column_Media_Title</title>
<path fill="none" stroke="black" d="M621.976,-3584.95C605.154,-3580.33 589.44,-3572.32 578.161,-3559 380.511,-3325.55 704.656,-1039.73 506.161,-807 498.264,-797.741 488.297,-790.993 477.304,-786.143"/>
<polygon fill="none" stroke="black" points="478.441,-782.831 467.851,-782.502 475.924,-789.363 478.441,-782.831"/>
</g>
<!-- \\ACP_Column_EditingInterface -->
<g id="node70" class="node"><title>\\ACP_Column_EditingInterface</title>
<ellipse fill="none" stroke="black" cx="360.574" cy="-618" rx="126.978" ry="18"/>
<text text-anchor="middle" x="360.574" y="-614.3" font-family="Times New Roman,serif" font-size="14.00" fill="gray">\ACP_Column_EditingInterface</text>
</g>
<!-- \\ACP_Addon_MLA_Column_Title&#45;&gt;\\ACP_Column_EditingInterface -->
<g id="edge8" class="edge"><title>\\ACP_Addon_MLA_Column_Title&#45;&gt;\\ACP_Column_EditingInterface</title>
<path fill="none" stroke="black" stroke-dasharray="1,5" d="M621.961,-3584.96C605.14,-3580.34 589.43,-3572.33 578.161,-3559 369.063,-3311.67 716.154,-891.575 506.161,-645 500.806,-638.712 494.497,-633.582 487.559,-629.418"/>
<polygon fill="none" stroke="black" points="488.941,-626.19 478.459,-624.645 485.689,-632.389 488.941,-626.19"/>
</g>
<!-- \\ACP_Addon_MLA_Column_Parent -->
<g id="node15" class="node"><title>\\ACP_Addon_MLA_Column_Parent</title>
<polygon fill="none" stroke="black" points="817.661,-3658 618.661,-3658 618.661,-3622 817.661,-3622 817.661,-3658"/>
<text text-anchor="middle" x="718.161" y="-3637.2" font-family="Courier,monospace" font-size="11.00">ACP_Addon_MLA_Column_Parent</text>
</g>
<!-- \\AC_Column_Media_Parent -->
<g id="node71" class="node"><title>\\AC_Column_Media_Parent</title>
<ellipse fill="none" stroke="black" cx="360.574" cy="-834" rx="114.28" ry="18"/>
<text text-anchor="middle" x="360.574" y="-830.3" font-family="Times New Roman,serif" font-size="14.00" fill="gray">\AC_Column_Media_Parent</text>
</g>
<!-- \\ACP_Addon_MLA_Column_Parent&#45;&gt;\\AC_Column_Media_Parent -->
<g id="edge9" class="edge"><title>\\ACP_Addon_MLA_Column_Parent&#45;&gt;\\AC_Column_Media_Parent</title>
<path fill="none" stroke="black" d="M618.439,-3637.92C602.962,-3633.18 588.645,-3625.38 578.161,-3613 380.511,-3379.55 704.656,-1093.73 506.161,-861 499.255,-852.902 490.764,-846.725 481.389,-842.059"/>
<polygon fill="none" stroke="black" points="482.718,-838.82 472.152,-838.034 479.922,-845.237 482.718,-838.82"/>
</g>
<!-- \\ACP_Addon_MLA_Column_MenuOrder -->
<g id="node16" class="node"><title>\\ACP_Addon_MLA_Column_MenuOrder</title>
<polygon fill="none" stroke="black" points="827.661,-3550 608.661,-3550 608.661,-3514 827.661,-3514 827.661,-3550"/>
<text text-anchor="middle" x="718.161" y="-3529.2" font-family="Courier,monospace" font-size="11.00">ACP_Addon_MLA_Column_MenuOrder</text>
</g>
<!-- \\ACP_Addon_MLA_Column_MenuOrder&#45;&gt;\\ACP_Column_EditingInterface -->
<g id="edge11" class="edge"><title>\\ACP_Addon_MLA_Column_MenuOrder&#45;&gt;\\ACP_Column_EditingInterface</title>
<path fill="none" stroke="black" stroke-dasharray="1,5" d="M608.426,-3526.34C596.849,-3521.54 586.337,-3514.67 578.161,-3505 372.879,-3262.29 712.321,-886.96 506.161,-645 500.805,-638.713 494.494,-633.584 487.555,-629.42"/>
<polygon fill="none" stroke="black" points="488.937,-626.193 478.455,-624.648 485.686,-632.392 488.937,-626.193"/>
</g>
<!-- \\AC_Column -->
<g id="node72" class="node"><title>\\AC_Column</title>
<ellipse fill="none" stroke="black" cx="360.574" cy="-726" rx="59.5901" ry="18"/>
<text text-anchor="middle" x="360.574" y="-722.3" font-family="Times New Roman,serif" font-size="14.00" fill="gray">\AC_Column</text>
</g>
<!-- \\ACP_Addon_MLA_Column_MenuOrder&#45;&gt;\\AC_Column -->
<g id="edge10" class="edge"><title>\\ACP_Addon_MLA_Column_MenuOrder&#45;&gt;\\AC_Column</title>
<path fill="none" stroke="black" d="M608.435,-3526.34C596.857,-3521.53 586.342,-3514.66 578.161,-3505 380.511,-3271.55 704.656,-985.731 506.161,-753 487.271,-730.851 456.532,-723.074 428.244,-721.262"/>
<polygon fill="none" stroke="black" points="428.092,-717.753 417.96,-720.848 427.811,-724.747 428.092,-717.753"/>
</g>
<!-- \\ACP_Addon_MLA_Column_AltText -->
<g id="node17" class="node"><title>\\ACP_Addon_MLA_Column_AltText</title>
<polygon fill="none" stroke="black" points="821.161,-3496 615.161,-3496 615.161,-3460 821.161,-3460 821.161,-3496"/>
<text text-anchor="middle" x="718.161" y="-3475.2" font-family="Courier,monospace" font-size="11.00">ACP_Addon_MLA_Column_AltText</text>
</g>
<!-- \\ACP_Addon_MLA_Column_AltText&#45;&gt;\\ACP_Column_EditingInterface -->
<g id="edge13" class="edge"><title>\\ACP_Addon_MLA_Column_AltText&#45;&gt;\\ACP_Column_EditingInterface</title>
<path fill="none" stroke="black" stroke-dasharray="1,5" d="M614.938,-3474.79C600.811,-3469.97 587.848,-3462.45 578.161,-3451 376.695,-3212.92 708.489,-882.346 506.161,-645 500.803,-638.715 494.491,-633.586 487.552,-629.423"/>
<polygon fill="none" stroke="black" points="488.932,-626.195 478.451,-624.652 485.682,-632.395 488.932,-626.195"/>
</g>
<!-- \\ACP_Column_Media_AlternateText -->
<g id="node73" class="node"><title>\\ACP_Column_Media_AlternateText</title>
<ellipse fill="none" stroke="black" cx="360.574" cy="-672" rx="145.674" ry="18"/>
<text text-anchor="middle" x="360.574" y="-668.3" font-family="Times New Roman,serif" font-size="14.00" fill="gray">\ACP_Column_Media_AlternateText</text>
</g>
<!-- \\ACP_Addon_MLA_Column_AltText&#45;&gt;\\ACP_Column_Media_AlternateText -->
<g id="edge12" class="edge"><title>\\ACP_Addon_MLA_Column_AltText&#45;&gt;\\ACP_Column_Media_AlternateText</title>
<path fill="none" stroke="black" d="M614.943,-3474.79C600.815,-3469.97 587.851,-3462.44 578.161,-3451 380.511,-3217.55 704.656,-931.731 506.161,-699 502.329,-694.507 498.01,-690.605 493.322,-687.225"/>
<polygon fill="none" stroke="black" points="494.842,-684.046 484.513,-681.688 491.117,-689.973 494.842,-684.046"/>
</g>
<!-- \\ACP_Addon_MLA_Column_Caption -->
<g id="node18" class="node"><title>\\ACP_Addon_MLA_Column_Caption</title>
<polygon fill="none" stroke="black" points="821.161,-3442 615.161,-3442 615.161,-3406 821.161,-3406 821.161,-3442"/>
<text text-anchor="middle" x="718.161" y="-3421.2" font-family="Courier,monospace" font-size="11.00">ACP_Addon_MLA_Column_Caption</text>
</g>
<!-- \\ACP_Addon_MLA_Column_Caption&#45;&gt;\\ACP_Column_EditingInterface -->
<g id="edge15" class="edge"><title>\\ACP_Addon_MLA_Column_Caption&#45;&gt;\\ACP_Column_EditingInterface</title>
<path fill="none" stroke="black" stroke-dasharray="1,5" d="M614.943,-3420.79C600.815,-3415.97 587.851,-3408.44 578.161,-3397 380.511,-3163.55 704.656,-877.731 506.161,-645 500.802,-638.716 494.489,-633.589 487.548,-629.426"/>
<polygon fill="none" stroke="black" points="488.928,-626.198 478.446,-624.656 485.678,-632.398 488.928,-626.198"/>
</g>
<!-- \\ACP_Column_Media_Caption -->
<g id="node74" class="node"><title>\\ACP_Column_Media_Caption</title>
<ellipse fill="none" stroke="black" cx="360.574" cy="-564" rx="126.178" ry="18"/>
<text text-anchor="middle" x="360.574" y="-560.3" font-family="Times New Roman,serif" font-size="14.00" fill="gray">\ACP_Column_Media_Caption</text>
</g>
<!-- \\ACP_Addon_MLA_Column_Caption&#45;&gt;\\ACP_Column_Media_Caption -->
<g id="edge14" class="edge"><title>\\ACP_Addon_MLA_Column_Caption&#45;&gt;\\ACP_Column_Media_Caption</title>
<path fill="none" stroke="black" d="M614.938,-3420.79C600.811,-3415.97 587.848,-3408.45 578.161,-3397 376.695,-3158.92 708.489,-828.346 506.161,-591 500.803,-584.715 494.491,-579.586 487.552,-575.423"/>
<polygon fill="none" stroke="black" points="488.932,-572.195 478.451,-570.652 485.682,-578.395 488.932,-572.195"/>
</g>
<!-- \\ACP_Addon_MLA_Column_Description -->
<g id="node19" class="node"><title>\\ACP_Addon_MLA_Column_Description</title>
<polygon fill="none" stroke="black" points="834.661,-3388 601.661,-3388 601.661,-3352 834.661,-3352 834.661,-3388"/>
<text text-anchor="middle" x="718.161" y="-3367.2" font-family="Courier,monospace" font-size="11.00">ACP_Addon_MLA_Column_Description</text>
</g>
<!-- \\ACP_Addon_MLA_Column_Description&#45;&gt;\\ACP_Column_EditingInterface -->
<g id="edge17" class="edge"><title>\\ACP_Addon_MLA_Column_Description&#45;&gt;\\ACP_Column_EditingInterface</title>
<path fill="none" stroke="black" stroke-dasharray="1,5" d="M601.501,-3361.13C592.67,-3356.61 584.676,-3350.69 578.161,-3343 384.327,-3114.18 700.824,-873.117 506.161,-645 500.8,-638.717 494.486,-633.591 487.544,-629.43"/>
<polygon fill="none" stroke="black" points="488.923,-626.201 478.441,-624.66 485.675,-632.401 488.923,-626.201"/>
</g>
<!-- \\AC_Column_Media_Description -->
<g id="node75" class="node"><title>\\AC_Column_Media_Description</title>
<ellipse fill="none" stroke="black" cx="360.574" cy="-510" rx="133.776" ry="18"/>
<text text-anchor="middle" x="360.574" y="-506.3" font-family="Times New Roman,serif" font-size="14.00" fill="gray">\AC_Column_Media_Description</text>
</g>
<!-- \\ACP_Addon_MLA_Column_Description&#45;&gt;\\AC_Column_Media_Description -->
<g id="edge16" class="edge"><title>\\ACP_Addon_MLA_Column_Description&#45;&gt;\\AC_Column_Media_Description</title>
<path fill="none" stroke="black" d="M601.492,-3361.14C592.663,-3356.62 584.672,-3350.69 578.161,-3343 376.695,-3104.92 708.489,-774.346 506.161,-537 501.487,-531.516 496.086,-526.913 490.176,-523.064"/>
<polygon fill="none" stroke="black" points="491.6,-519.848 481.177,-517.948 488.141,-525.933 491.6,-519.848"/>
</g>
<!-- \\ACP_Addon_MLA_Column_MimeType -->
<g id="node20" class="node"><title>\\ACP_Addon_MLA_Column_MimeType</title>
<polygon fill="none" stroke="black" points="824.161,-3334 612.161,-3334 612.161,-3298 824.161,-3298 824.161,-3334"/>
<text text-anchor="middle" x="718.161" y="-3313.2" font-family="Courier,monospace" font-size="11.00">ACP_Addon_MLA_Column_MimeType</text>
</g>
<!-- \\ACP_Addon_MLA_Column_MimeType&#45;&gt;\\ACP_Column_EditingInterface -->
<g id="edge19" class="edge"><title>\\ACP_Addon_MLA_Column_MimeType&#45;&gt;\\ACP_Column_EditingInterface</title>
<path fill="none" stroke="black" stroke-dasharray="1,5" d="M611.847,-3311.67C598.929,-3306.83 587.142,-3299.6 578.161,-3289 388.142,-3064.81 696.991,-868.503 506.161,-645 500.798,-638.719 494.483,-633.594 487.54,-629.433"/>
<polygon fill="none" stroke="black" points="488.919,-626.204 478.436,-624.664 485.671,-632.405 488.919,-626.204"/>
</g>
<!-- \\AC_Column_Media_MimeType -->
<g id="node76" class="node"><title>\\AC_Column_Media_MimeType</title>
<ellipse fill="none" stroke="black" cx="360.574" cy="-456" rx="131.077" ry="18"/>
<text text-anchor="middle" x="360.574" y="-452.3" font-family="Times New Roman,serif" font-size="14.00" fill="gray">\AC_Column_Media_MimeType</text>
</g>
<!-- \\ACP_Addon_MLA_Column_MimeType&#45;&gt;\\AC_Column_Media_MimeType -->
<g id="edge18" class="edge"><title>\\ACP_Addon_MLA_Column_MimeType&#45;&gt;\\AC_Column_Media_MimeType</title>
<path fill="none" stroke="black" d="M611.831,-3311.68C598.916,-3306.84 587.134,-3299.6 578.161,-3289 376.695,-3050.92 708.489,-720.346 506.161,-483 501.207,-477.188 495.437,-472.366 489.11,-468.381"/>
<polygon fill="none" stroke="black" points="490.608,-465.211 480.16,-463.452 487.231,-471.342 490.608,-465.211"/>
</g>
<!-- \\ACP_Addon_MLA_Column_Date -->
<g id="node21" class="node"><title>\\ACP_Addon_MLA_Column_Date</title>
<polygon fill="none" stroke="black" points="810.661,-3172 625.661,-3172 625.661,-3136 810.661,-3136 810.661,-3172"/>
<text text-anchor="middle" x="718.161" y="-3151.2" font-family="Courier,monospace" font-size="11.00">ACP_Addon_MLA_Column_Date</text>
</g>
<!-- \\ACP_Column_Media_Date -->
<g id="node77" class="node"><title>\\ACP_Column_Media_Date</title>
<ellipse fill="none" stroke="black" cx="360.574" cy="-348" rx="113.98" ry="18"/>
<text text-anchor="middle" x="360.574" y="-344.3" font-family="Times New Roman,serif" font-size="14.00" fill="gray">\ACP_Column_Media_Date</text>
</g>
<!-- \\ACP_Addon_MLA_Column_Date&#45;&gt;\\ACP_Column_Media_Date -->
<g id="edge20" class="edge"><title>\\ACP_Addon_MLA_Column_Date&#45;&gt;\\ACP_Column_Media_Date</title>
<path fill="none" stroke="black" d="M625.545,-3153.87C607.389,-3149.43 590.234,-3141.26 578.161,-3127 380.511,-2893.55 704.656,-607.731 506.161,-375 499.192,-366.828 490.61,-360.613 481.133,-355.932"/>
<polygon fill="none" stroke="black" points="482.365,-352.651 471.797,-351.9 479.59,-359.078 482.365,-352.651"/>
</g>
<!-- \\ACP_Addon_MLA_Column_Author -->
<g id="node22" class="node"><title>\\ACP_Addon_MLA_Column_Author</title>
<polygon fill="none" stroke="black" points="817.661,-3280 618.661,-3280 618.661,-3244 817.661,-3244 817.661,-3280"/>
<text text-anchor="middle" x="718.161" y="-3259.2" font-family="Courier,monospace" font-size="11.00">ACP_Addon_MLA_Column_Author</text>
</g>
<!-- \\ACP_Addon_MLA_Column_Author&#45;&gt;\\ACP_Column_EditingInterface -->
<g id="edge22" class="edge"><title>\\ACP_Addon_MLA_Column_Author&#45;&gt;\\ACP_Column_EditingInterface</title>
<path fill="none" stroke="black" stroke-dasharray="1,5" d="M618.456,-3259.91C602.977,-3255.16 588.655,-3247.37 578.161,-3235 391.958,-3015.44 693.159,-863.888 506.161,-645 500.797,-638.72 494.48,-633.596 487.536,-629.437"/>
<polygon fill="none" stroke="black" points="488.914,-626.207 478.431,-624.668 485.666,-632.408 488.914,-626.207"/>
</g>
<!-- \\AC_Column_Media_Author -->
<g id="node78" class="node"><title>\\AC_Column_Media_Author</title>
<ellipse fill="none" stroke="black" cx="360.574" cy="-402" rx="116.979" ry="18"/>
<text text-anchor="middle" x="360.574" y="-398.3" font-family="Times New Roman,serif" font-size="14.00" fill="gray">\AC_Column_Media_Author</text>
</g>
<!-- \\ACP_Addon_MLA_Column_Author&#45;&gt;\\AC_Column_Media_Author -->
<g id="edge21" class="edge"><title>\\ACP_Addon_MLA_Column_Author&#45;&gt;\\AC_Column_Media_Author</title>
<path fill="none" stroke="black" d="M618.434,-3259.93C602.958,-3255.18 588.642,-3247.39 578.161,-3235 376.695,-2996.92 708.489,-666.346 506.161,-429 499.707,-421.428 491.867,-415.535 483.214,-410.986"/>
<polygon fill="none" stroke="black" points="484.474,-407.714 473.926,-406.718 481.551,-414.074 484.474,-407.714"/>
</g>
<!-- \\MLASettings_CustomFields -->
<g id="node23" class="node"><title>\\MLASettings_CustomFields</title>
<polygon fill="none" stroke="black" points="807.661,-3226 628.661,-3226 628.661,-3190 807.661,-3190 807.661,-3226"/>
<text text-anchor="middle" x="718.161" y="-3205.2" font-family="Courier,monospace" font-size="11.00">MLASettings_CustomFields</text>
</g>
<!-- \\MLA_Custom_Fields_List_Table -->
<g id="node24" class="node"><title>\\MLA_Custom_Fields_List_Table</title>
<polygon fill="none" stroke="black" points="821.161,-3010 615.161,-3010 615.161,-2974 821.161,-2974 821.161,-3010"/>
<text text-anchor="middle" x="718.161" y="-2989.2" font-family="Courier,monospace" font-size="11.00">MLA_Custom_Fields_List_Table</text>
</g>
<!-- \\MLA_Custom_Fields_List_Table&#45;&gt;\\WP_List_Table -->
<g id="edge23" class="edge"><title>\\MLA_Custom_Fields_List_Table&#45;&gt;\\WP_List_Table</title>
<path fill="none" stroke="black" d="M614.954,-2988.78C600.824,-2983.96 587.857,-2976.44 578.161,-2965 388.142,-2740.81 702.95,-539.274 506.161,-321 462.762,-272.862 410.417,-344.605 361.574,-302"/>
</g>
<!-- \\MLA_Custom_Field_Query -->
<g id="node25" class="node"><title>\\MLA_Custom_Field_Query</title>
<polygon fill="none" stroke="black" points="800.661,-3118 635.661,-3118 635.661,-3082 800.661,-3082 800.661,-3118"/>
<text text-anchor="middle" x="718.161" y="-3097.2" font-family="Courier,monospace" font-size="11.00">MLA_Custom_Field_Query</text>
</g>
<!-- \\MLASettings_Shortcodes -->
<g id="node26" class="node"><title>\\MLASettings_Shortcodes</title>
<polygon fill="none" stroke="black" points="800.661,-3064 635.661,-3064 635.661,-3028 800.661,-3028 800.661,-3064"/>
<text text-anchor="middle" x="718.161" y="-3043.2" font-family="Courier,monospace" font-size="11.00">MLASettings_Shortcodes</text>
</g>
<!-- \\MLA_Template_List_Table -->
<g id="node27" class="node"><title>\\MLA_Template_List_Table</title>
<polygon fill="none" stroke="black" points="804.161,-2848 632.161,-2848 632.161,-2812 804.161,-2812 804.161,-2848"/>
<text text-anchor="middle" x="718.161" y="-2827.2" font-family="Courier,monospace" font-size="11.00">MLA_Template_List_Table</text>
</g>
<!-- \\MLA_Template_List_Table&#45;&gt;\\WP_List_Table -->
<g id="edge24" class="edge"><title>\\MLA_Template_List_Table&#45;&gt;\\WP_List_Table</title>
<path fill="none" stroke="black" d="M359.574,-302C328.59,-274.973 218.3,-282.783 143.797,-291.752"/>
<polygon fill="none" stroke="black" points="143.029,-288.321 133.534,-293.022 143.888,-295.268 143.029,-288.321"/>
<path fill="none" stroke="black" d="M632.061,-2831.27C611.554,-2827.26 591.686,-2818.93 578.161,-2803 399.589,-2592.69 691.084,-525.746 506.161,-321 462.719,-272.901 410.417,-344.605 361.574,-302"/>
</g>
<!-- \\MLA_Template_Query -->
<g id="node28" class="node"><title>\\MLA_Template_Query</title>
<polygon fill="none" stroke="black" points="787.161,-2956 649.161,-2956 649.161,-2920 787.161,-2920 787.161,-2956"/>
<text text-anchor="middle" x="718.161" y="-2935.2" font-family="Courier,monospace" font-size="11.00">MLA_Template_Query</text>
</g>
<!-- \\MLACore -->
<g id="node29" class="node"><title>\\MLACore</title>
<polygon fill="none" stroke="black" points="750.161,-2902 686.161,-2902 686.161,-2866 750.161,-2866 750.161,-2902"/>
<text text-anchor="middle" x="718.161" y="-2881.2" font-family="Courier,monospace" font-size="11.00">MLACore</text>
</g>
<!-- \\MLA_Checklist_Walker -->
<g id="node30" class="node"><title>\\MLA_Checklist_Walker</title>
<polygon fill="none" stroke="black" points="794.161,-2740 642.161,-2740 642.161,-2704 794.161,-2704 794.161,-2740"/>
<text text-anchor="middle" x="718.161" y="-2719.2" font-family="Courier,monospace" font-size="11.00">MLA_Checklist_Walker</text>
</g>
<!-- \\Walker_Category -->
<g id="node79" class="node"><title>\\Walker_Category</title>
<ellipse fill="none" stroke="black" cx="360.574" cy="-256" rx="77.1866" ry="18"/>
<text text-anchor="middle" x="360.574" y="-252.3" font-family="Times New Roman,serif" font-size="14.00" fill="gray">\Walker_Category</text>
</g>
<!-- \\MLA_Checklist_Walker&#45;&gt;\\Walker_Category -->
<g id="edge25" class="edge"><title>\\MLA_Checklist_Walker&#45;&gt;\\Walker_Category</title>
<path fill="none" stroke="black" d="M641.867,-2724.87C618.035,-2721.7 593.842,-2713.45 578.161,-2695 404.889,-2491.12 676.774,-494.111 506.161,-288 491.667,-270.49 469.938,-261.257 447.7,-256.674"/>
<polygon fill="none" stroke="black" points="448.271,-253.221 437.816,-254.933 447.057,-260.115 448.271,-253.221"/>
</g>
<!-- \\MLASettings_Documentation -->
<g id="node31" class="node"><title>\\MLASettings_Documentation</title>
<polygon fill="none" stroke="black" points="810.661,-2794 625.661,-2794 625.661,-2758 810.661,-2758 810.661,-2794"/>
<text text-anchor="middle" x="718.161" y="-2773.2" font-family="Courier,monospace" font-size="11.00">MLASettings_Documentation</text>
</g>
<!-- \\MLA_Example_List_Table -->
<g id="node32" class="node"><title>\\MLA_Example_List_Table</title>
<polygon fill="none" stroke="black" points="800.661,-2686 635.661,-2686 635.661,-2650 800.661,-2650 800.661,-2686"/>
<text text-anchor="middle" x="718.161" y="-2665.2" font-family="Courier,monospace" font-size="11.00">MLA_Example_List_Table</text>
</g>
<!-- \\MLA_Example_List_Table&#45;&gt;\\WP_List_Table -->
<g id="edge26" class="edge"><title>\\MLA_Example_List_Table&#45;&gt;\\WP_List_Table</title>
<path fill="none" stroke="black" d="M635.331,-2669.87C613.684,-2666.11 592.409,-2657.77 578.161,-2641 404.535,-2436.69 698.558,-415.739 506.161,-229 459.73,-183.934 277.888,-213.826 214.987,-229 174.757,-238.705 133.124,-261.814 105.327,-279.452"/>
<polygon fill="none" stroke="black" points="103.304,-276.593 96.808,-284.963 107.105,-282.47 103.304,-276.593"/>
</g>
<!-- \\MLA_Upgrader_Skin -->
<g id="node33" class="node"><title>\\MLA_Upgrader_Skin</title>
<polygon fill="none" stroke="black" points="783.661,-2470 652.661,-2470 652.661,-2434 783.661,-2434 783.661,-2470"/>
<text text-anchor="middle" x="718.161" y="-2449.2" font-family="Courier,monospace" font-size="11.00">MLA_Upgrader_Skin</text>
</g>
<!-- \\WP_Upgrader_Skin -->
<g id="node80" class="node"><title>\\WP_Upgrader_Skin</title>
<ellipse fill="none" stroke="black" cx="360.574" cy="-164" rx="87.1846" ry="18"/>
<text text-anchor="middle" x="360.574" y="-160.3" font-family="Times New Roman,serif" font-size="14.00" fill="gray">\WP_Upgrader_Skin</text>
</g>
<!-- \\MLA_Upgrader_Skin&#45;&gt;\\WP_Upgrader_Skin -->
<g id="edge27" class="edge"><title>\\MLA_Upgrader_Skin&#45;&gt;\\WP_Upgrader_Skin</title>
<path fill="none" stroke="black" d="M652.364,-2455.93C625.37,-2453.88 596.176,-2446.15 578.161,-2425 417.465,-2236.37 664.397,-386.695 506.161,-196 493.789,-181.089 476.17,-172.185 457.467,-167.042"/>
<polygon fill="none" stroke="black" points="458.15,-163.606 447.61,-164.683 456.521,-170.414 458.15,-163.606"/>
</g>
<!-- \\MLAPDF -->
<g id="node34" class="node"><title>\\MLAPDF</title>
<polygon fill="none" stroke="black" points="746.661,-2632 689.661,-2632 689.661,-2596 746.661,-2596 746.661,-2632"/>
<text text-anchor="middle" x="718.161" y="-2611.2" font-family="Courier,monospace" font-size="11.00">MLAPDF</text>
</g>
<!-- \\MLAUninstall -->
<g id="node35" class="node"><title>\\MLAUninstall</title>
<polygon fill="none" stroke="black" points="767.161,-2578 669.161,-2578 669.161,-2542 767.161,-2542 767.161,-2578"/>
<text text-anchor="middle" x="718.161" y="-2557.2" font-family="Courier,monospace" font-size="11.00">MLAUninstall</text>
</g>
<!-- \\MLA_Thumbnail -->
<g id="node36" class="node"><title>\\MLA_Thumbnail</title>
<polygon fill="none" stroke="black" points="770.161,-2524 666.161,-2524 666.161,-2488 770.161,-2488 770.161,-2524"/>
<text text-anchor="middle" x="718.161" y="-2503.2" font-family="Courier,monospace" font-size="11.00">MLA_Thumbnail</text>
</g>
<!-- \\CPAC_Deprecated_Storage_Model_MLA -->
<g id="node37" class="node"><title>\\CPAC_Deprecated_Storage_Model_MLA</title>
<polygon fill="none" stroke="black" points="837.661,-2308 598.661,-2308 598.661,-2272 837.661,-2272 837.661,-2308"/>
<text text-anchor="middle" x="718.161" y="-2287.2" font-family="Courier,monospace" font-size="11.00">CPAC_Deprecated_Storage_Model_MLA</text>
</g>
<!-- \\CPAC_Storage_Model -->
<g id="node81" class="node"><title>\\CPAC_Storage_Model</title>
<ellipse fill="none" stroke="black" cx="360.574" cy="-110" rx="98.5829" ry="18"/>
<text text-anchor="middle" x="360.574" y="-106.3" font-family="Times New Roman,serif" font-size="14.00" fill="gray">\CPAC_Storage_Model</text>
</g>
<!-- \\CPAC_Deprecated_Storage_Model_MLA&#45;&gt;\\CPAC_Storage_Model -->
<g id="edge28" class="edge"><title>\\CPAC_Deprecated_Storage_Model_MLA&#45;&gt;\\CPAC_Storage_Model</title>
<path fill="none" stroke="black" d="M598.362,-2279.37C590.783,-2275.1 583.906,-2269.73 578.161,-2263 424.742,-2083.2 660.231,-316.242 506.161,-137 496.424,-125.671 483.586,-118.11 469.574,-113.187"/>
<polygon fill="none" stroke="black" points="470.295,-109.748 459.71,-110.185 468.258,-116.445 470.295,-109.748"/>
</g>
<!-- \\MLAReferences -->
<g id="node38" class="node"><title>\\MLAReferences</title>
<polygon fill="none" stroke="black" points="770.161,-2416 666.161,-2416 666.161,-2380 770.161,-2380 770.161,-2416"/>
<text text-anchor="middle" x="718.161" y="-2395.2" font-family="Courier,monospace" font-size="11.00">MLAReferences</text>
</g>
<!-- \\MLA_WPML -->
<g id="node39" class="node"><title>\\MLA_WPML</title>
<polygon fill="none" stroke="black" points="753.661,-2362 682.661,-2362 682.661,-2326 753.661,-2326 753.661,-2362"/>
<text text-anchor="middle" x="718.161" y="-2341.2" font-family="Courier,monospace" font-size="11.00">MLA_WPML</text>
</g>
<!-- \\MLA_WPML_List_Table -->
<g id="node40" class="node"><title>\\MLA_WPML_List_Table</title>
<polygon fill="none" stroke="black" points="790.661,-4306 645.661,-4306 645.661,-4270 790.661,-4270 790.661,-4306"/>
<text text-anchor="middle" x="718.161" y="-4285.2" font-family="Courier,monospace" font-size="11.00">MLA_WPML_List_Table</text>
</g>
<!-- \\MLA_List_Table -->
<g id="node43" class="node"><title>\\MLA_List_Table</title>
<polygon fill="none" stroke="black" points="416.074,-4248 305.074,-4248 305.074,-4212 416.074,-4212 416.074,-4248"/>
<text text-anchor="middle" x="360.574" y="-4227.2" font-family="Courier,monospace" font-size="11.00">MLA_List_Table</text>
</g>
<!-- \\MLA_WPML_List_Table&#45;&gt;\\MLA_List_Table -->
<g id="edge29" class="edge"><title>\\MLA_WPML_List_Table&#45;&gt;\\MLA_List_Table</title>
<path fill="none" stroke="black" d="M645.631,-4276.33C581.465,-4265.87 488.133,-4250.64 426.183,-4240.54"/>
<polygon fill="none" stroke="black" points="426.572,-4237.06 416.139,-4238.9 425.445,-4243.96 426.572,-4237.06"/>
</g>
<!-- \\MLA_WPML_Table -->
<g id="node41" class="node"><title>\\MLA_WPML_Table</title>
<polygon fill="none" stroke="black" points="773.661,-2254 662.661,-2254 662.661,-2218 773.661,-2218 773.661,-2254"/>
<text text-anchor="middle" x="718.161" y="-2233.2" font-family="Courier,monospace" font-size="11.00">MLA_WPML_Table</text>
</g>
<!-- \\MLA -->
<g id="node42" class="node"><title>\\MLA</title>
<polygon fill="none" stroke="black" points="745.161,-2200 691.161,-2200 691.161,-2164 745.161,-2164 745.161,-2200"/>
<text text-anchor="middle" x="718.161" y="-2179.2" font-family="Courier,monospace" font-size="11.00">MLA</text>
</g>
<!-- \\MLA_List_Table&#45;&gt;\\WP_List_Table -->
<g id="edge30" class="edge"><title>\\MLA_List_Table&#45;&gt;\\WP_List_Table</title>
<path fill="none" stroke="black" d="M306.988,-4211.99C274.417,-4197.84 235.088,-4174.66 214.987,-4140 113.484,-3964.99 76.358,-671.189 72.784,-330.419"/>
<polygon fill="none" stroke="black" points="76.2834,-330.334 72.6794,-320.371 69.2838,-330.407 76.2834,-330.334"/>
</g>
<!-- \\MLASettings_IPTC_EXIF -->
<g id="node44" class="node"><title>\\MLASettings_IPTC_EXIF</title>
<polygon fill="none" stroke="black" points="797.161,-2146 639.161,-2146 639.161,-2110 797.161,-2110 797.161,-2146"/>
<text text-anchor="middle" x="718.161" y="-2125.2" font-family="Courier,monospace" font-size="11.00">MLASettings_IPTC_EXIF</text>
</g>
<!-- \\MLA_IPTC_EXIF_List_Table -->
<g id="node45" class="node"><title>\\MLA_IPTC_EXIF_List_Table</title>
<polygon fill="none" stroke="black" points="807.661,-2092 628.661,-2092 628.661,-2056 807.661,-2056 807.661,-2092"/>
<text text-anchor="middle" x="718.161" y="-2071.2" font-family="Courier,monospace" font-size="11.00">MLA_IPTC_EXIF_List_Table</text>
</g>
<!-- \\MLA_IPTC_EXIF_List_Table&#45;&gt;\\WP_List_Table -->
<g id="edge31" class="edge"><title>\\MLA_IPTC_EXIF_List_Table&#45;&gt;\\WP_List_Table</title>
<path fill="none" stroke="black" d="M628.531,-2074.45C609.317,-2070.18 590.948,-2061.94 578.161,-2047 436.187,-1881.08 663.375,-234.555 506.161,-83 459.577,-38.0923 271.865,-52.1502 214.987,-83 139.048,-124.189 97.2335,-225.303 80.7994,-274.381"/>
<polygon fill="none" stroke="black" points="77.4279,-273.432 77.6746,-284.024 84.087,-275.59 77.4279,-273.432"/>
</g>
<!-- \\MLAModal_Ajax -->
<g id="node46" class="node"><title>\\MLAModal_Ajax</title>
<polygon fill="none" stroke="black" points="770.161,-2038 666.161,-2038 666.161,-2002 770.161,-2002 770.161,-2038"/>
<text text-anchor="middle" x="718.161" y="-2017.2" font-family="Courier,monospace" font-size="11.00">MLAModal_Ajax</text>
</g>
<!-- \\MLAModal -->
<g id="node47" class="node"><title>\\MLAModal</title>
<polygon fill="none" stroke="black" points="753.661,-1984 682.661,-1984 682.661,-1948 753.661,-1948 753.661,-1984"/>
<text text-anchor="middle" x="718.161" y="-1963.2" font-family="Courier,monospace" font-size="11.00">MLAModal</text>
</g>
<!-- \\MLACoreOptions -->
<g id="node48" class="node"><title>\\MLACoreOptions</title>
<polygon fill="none" stroke="black" points="773.661,-1930 662.661,-1930 662.661,-1894 773.661,-1894 773.661,-1930"/>
<text text-anchor="middle" x="718.161" y="-1909.2" font-family="Courier,monospace" font-size="11.00">MLACoreOptions</text>
</g>
<!-- \\MLA_Polylang -->
<g id="node49" class="node"><title>\\MLA_Polylang</title>
<polygon fill="none" stroke="black" points="767.161,-1876 669.161,-1876 669.161,-1840 767.161,-1840 767.161,-1876"/>
<text text-anchor="middle" x="718.161" y="-1855.2" font-family="Courier,monospace" font-size="11.00">MLA_Polylang</text>
</g>
<!-- \\MLAMime -->
<g id="node50" class="node"><title>\\MLAMime</title>
<polygon fill="none" stroke="black" points="750.161,-1822 686.161,-1822 686.161,-1786 750.161,-1786 750.161,-1822"/>
<text text-anchor="middle" x="718.161" y="-1801.2" font-family="Courier,monospace" font-size="11.00">MLAMime</text>
</g>
<!-- \\MLAFileDownloader -->
<g id="node51" class="node"><title>\\MLAFileDownloader</title>
<polygon fill="none" stroke="black" points="783.661,-1768 652.661,-1768 652.661,-1732 783.661,-1732 783.661,-1768"/>
<text text-anchor="middle" x="718.161" y="-1747.2" font-family="Courier,monospace" font-size="11.00">MLAFileDownloader</text>
</g>
<!-- \\MLAQuery -->
<g id="node52" class="node"><title>\\MLAQuery</title>
<polygon fill="none" stroke="black" points="753.661,-1714 682.661,-1714 682.661,-1678 753.661,-1678 753.661,-1714"/>
<text text-anchor="middle" x="718.161" y="-1693.2" font-family="Courier,monospace" font-size="11.00">MLAQuery</text>
</g>
<!-- \\MLAImageProcessor -->
<g id="node53" class="node"><title>\\MLAImageProcessor</title>
<polygon fill="none" stroke="black" points="783.661,-1660 652.661,-1660 652.661,-1624 783.661,-1624 783.661,-1660"/>
<text text-anchor="middle" x="718.161" y="-1639.2" font-family="Courier,monospace" font-size="11.00">MLAImageProcessor</text>
</g>
<!-- \\MLAMutex -->
<g id="node54" class="node"><title>\\MLAMutex</title>
<polygon fill="none" stroke="black" points="753.661,-1606 682.661,-1606 682.661,-1570 753.661,-1570 753.661,-1606"/>
<text text-anchor="middle" x="718.161" y="-1585.2" font-family="Courier,monospace" font-size="11.00">MLAMutex</text>
</g>
<!-- \\MLA_WPML_Shortcodes -->
<g id="node55" class="node"><title>\\MLA_WPML_Shortcodes</title>
<polygon fill="none" stroke="black" points="790.661,-1552 645.661,-1552 645.661,-1516 790.661,-1516 790.661,-1552"/>
<text text-anchor="middle" x="718.161" y="-1531.2" font-family="Courier,monospace" font-size="11.00">MLA_WPML_Shortcodes</text>
</g>
<!-- \\MLAEdit -->
<g id="node56" class="node"><title>\\MLAEdit</title>
<polygon fill="none" stroke="black" points="750.161,-1498 686.161,-1498 686.161,-1462 750.161,-1462 750.161,-1498"/>
<text text-anchor="middle" x="718.161" y="-1477.2" font-family="Courier,monospace" font-size="11.00">MLAEdit</text>
</g>
<!-- \\MLAData_Source -->
<g id="node57" class="node"><title>\\MLAData_Source</title>
<polygon fill="none" stroke="black" points="773.661,-1444 662.661,-1444 662.661,-1408 773.661,-1408 773.661,-1444"/>
<text text-anchor="middle" x="718.161" y="-1423.2" font-family="Courier,monospace" font-size="11.00">MLAData_Source</text>
</g>
<!-- \\MLA_Polylang_Shortcodes -->
<g id="node58" class="node"><title>\\MLA_Polylang_Shortcodes</title>
<polygon fill="none" stroke="black" points="804.161,-1390 632.161,-1390 632.161,-1354 804.161,-1354 804.161,-1390"/>
<text text-anchor="middle" x="718.161" y="-1369.2" font-family="Courier,monospace" font-size="11.00">MLA_Polylang_Shortcodes</text>
</g>
<!-- \\MLASettings -->
<g id="node59" class="node"><title>\\MLASettings</title>
<polygon fill="none" stroke="black" points="763.661,-1336 672.661,-1336 672.661,-1300 763.661,-1300 763.661,-1336"/>
<text text-anchor="middle" x="718.161" y="-1315.2" font-family="Courier,monospace" font-size="11.00">MLASettings</text>
</g>
<!-- \\MLAShortcode_Support -->
<g id="node60" class="node"><title>\\MLAShortcode_Support</title>
<polygon fill="none" stroke="black" points="794.161,-1282 642.161,-1282 642.161,-1246 794.161,-1246 794.161,-1282"/>
<text text-anchor="middle" x="718.161" y="-1261.2" font-family="Courier,monospace" font-size="11.00">MLAShortcode_Support</text>
</g>
<!-- \\MLASettings_IPTCEXIF -->
<g id="node61" class="node"><title>\\MLASettings_IPTCEXIF</title>
<polygon fill="none" stroke="black" points="794.161,-1228 642.161,-1228 642.161,-1192 794.161,-1192 794.161,-1228"/>
<text text-anchor="middle" x="718.161" y="-1207.2" font-family="Courier,monospace" font-size="11.00">MLASettings_IPTCEXIF</text>
</g>
<!-- \\MLATemplate_Support -->
<g id="node62" class="node"><title>\\MLATemplate_Support</title>
<polygon fill="none" stroke="black" points="790.661,-1174 645.661,-1174 645.661,-1138 790.661,-1138 790.661,-1174"/>
<text text-anchor="middle" x="718.161" y="-1153.2" font-family="Courier,monospace" font-size="11.00">MLATemplate_Support</text>
</g>
<!-- \\MLAObjects -->
<g id="node63" class="node"><title>\\MLAObjects</title>
<polygon fill="none" stroke="black" points="760.161,-1120 676.161,-1120 676.161,-1084 760.161,-1084 760.161,-1120"/>
<text text-anchor="middle" x="718.161" y="-1099.2" font-family="Courier,monospace" font-size="11.00">MLAObjects</text>
</g>
<!-- \\MLATextWidget -->
<g id="node64" class="node"><title>\\MLATextWidget</title>
<polygon fill="none" stroke="black" points="770.161,-1066 666.161,-1066 666.161,-1030 770.161,-1030 770.161,-1066"/>
<text text-anchor="middle" x="718.161" y="-1045.2" font-family="Courier,monospace" font-size="11.00">MLATextWidget</text>
</g>
<!-- \\WP_Widget -->
<g id="node82" class="node"><title>\\WP_Widget</title>
<ellipse fill="none" stroke="black" cx="360.574" cy="-18" rx="58.4896" ry="18"/>
<text text-anchor="middle" x="360.574" y="-14.3" font-family="Times New Roman,serif" font-size="14.00" fill="gray">\WP_Widget</text>
</g>
<!-- \\MLATextWidget&#45;&gt;\\WP_Widget -->
<g id="edge32" class="edge"><title>\\MLATextWidget&#45;&gt;\\WP_Widget</title>
<path fill="none" stroke="black" d="M715.93,-1029.63C707.279,-906.1 651.668,-196.889 506.161,-50 486.187,-29.8361 456.552,-21.1121 429.303,-17.7113"/>
<polygon fill="none" stroke="black" points="429.306,-14.1933 419.001,-16.6557 428.592,-21.1569 429.306,-14.1933"/>
</g>
</g>
</svg>
